<svg width="1226" height="275" viewBox="0 0 1226 275" fill="none" xmlns="http://www.w3.org/2000/svg">
<path d="M619.354 141.664L54.3936 137.44L619.354 133.216L1184.31 137.44L619.354 141.664Z" fill="white"/>
<path fill-rule="evenodd" clip-rule="evenodd" d="M0.185547 128.992L88.1856 27.6162L191.322 0.160156L225.114 58.2402L219.834 220.864L191.322 274.016L132.186 264.512L54.3936 214.528L15.801 153.632L58.9696 143.072L33.9776 134.272L0.185547 128.992ZM158.586 64.2242L128.314 45.5682L121.626 88.8642L142.042 106.464L158.586 88.8642V64.2242Z" fill="white"/>
<path d="M1214.71 21.4473C1180.17 13.8308 1144.07 23.3453 1117.78 46.9991L1046.81 110.831C1031.95 124.2 1031.19 147.247 1045.14 161.565L1111.52 229.7C1137.64 256.501 1174.81 269.503 1211.93 264.819V264.819C1220.7 263.713 1226.59 255.274 1224.6 246.665L1220.48 228.792C1218.68 220.997 1215.34 213.671 1210.59 207.236C1199.72 192.525 1186.43 172.255 1186.43 135.328C1186.43 114.742 1195.28 95.7231 1204.45 82.9578C1211.78 72.7469 1219.36 62.0451 1222.27 49.8173L1225.09 38.0046C1226.86 30.5545 1222.18 23.0965 1214.71 21.4473V21.4473Z" fill="white"/>
</svg>
